HIERARCHY
ROOT Hips
{
	OFFSET 0.000000 100.481300 0.000000
	CHANNELS 6 Xposition Yposition Zposition Xrotation Yrotation Zrotation
	JOINT Spine
	{
		OFFSET -0.279200 12.230698 -2.892100
		CHANNELS 3 Xrotation Yrotation Zrotation
		JOINT Spine1
		{
			OFFSET -0.325700 14.269203 -3.374200
			CHANNELS 3 Xrotation Yrotation Zrotation
			JOINT Spine2
			{
				OFFSET -0.372300 16.307602 -0.352600
				CHANNELS 3 Xrotation Yrotation Zrotation
				JOINT Neck
				{
					OFFSET -0.418800 17.814194 8.416900
					CHANNELS 3 Xrotation Yrotation Zrotation
					JOINT Head
					{
						OFFSET 0.000000 7.031097 3.806800
						CHANNELS 3 Xrotation Yrotation Zrotation
						JOINT HeadTop_End
						{
							OFFSET 0.000000 24.646606 12.978600
							CHANNELS 3 Xrotation Yrotation Zrotation
							End Site
							{
								OFFSET 0.000000 27.854965 0.000000
							}
						}
					}
				}
				JOINT LeftShoulder
				{
					OFFSET 16.952999 14.495407 -7.737500
					CHANNELS 3 Xrotation Yrotation Zrotation
					JOINT LeftArm
					{
						OFFSET 9.308998 -2.777710 0.208600
						CHANNELS 3 Xrotation Yrotation Zrotation
						JOINT LeftForeArm
						{
							OFFSET 29.972298 0.000000 0.000000
							CHANNELS 3 Xrotation Yrotation Zrotation
							JOINT LeftHand
							{
								OFFSET 26.026505 0.000000 0.000000
								CHANNELS 3 Xrotation Yrotation Zrotation
								JOINT LeftHandThumb1
								{
									OFFSET 12.240501 -7.147949 9.207150
									CHANNELS 3 Xrotation Yrotation Zrotation
									JOINT LeftHandThumb2
									{
										OFFSET 4.138618 -2.389435 2.389433
										CHANNELS 3 Xrotation Yrotation Zrotation
										JOINT LeftHandThumb3
										{
											OFFSET 2.726913 -1.574387 1.574386
											CHANNELS 3 Xrotation Yrotation Zrotation
											JOINT LeftHandThumb4
											{
												OFFSET 3.941010 -2.275345 2.275342
												CHANNELS 3 Xrotation Yrotation Zrotation
												End Site
												{
													OFFSET -0.005798 5.087799 0.009903
												}
											}
										}
									}
								}
								JOINT LeftHandIndex1
								{
									OFFSET 24.424698 -1.985611 5.953459
									CHANNELS 3 Xrotation Yrotation Zrotation
									JOINT LeftHandIndex2
									{
										OFFSET 6.426697 0.000000 0.000000
										CHANNELS 3 Xrotation Yrotation Zrotation
										JOINT LeftHandIndex3
										{
											OFFSET 5.337898 0.000000 0.000000
											CHANNELS 3 Xrotation Yrotation Zrotation
											JOINT LeftHandIndex4
											{
												OFFSET 4.409401 0.000000 0.000000
												CHANNELS 3 Xrotation Yrotation Zrotation
												End Site
												{
													OFFSET 0.000000 4.409363 0.014373
												}
											}
										}
									}
								}
								JOINT LeftHandMiddle1
								{
									OFFSET 23.810104 0.000000 0.000000
									CHANNELS 3 Xrotation Yrotation Zrotation
									JOINT LeftHandMiddle2
									{
										OFFSET 7.176498 0.000000 0.000000
										CHANNELS 3 Xrotation Yrotation Zrotation
										JOINT LeftHandMiddle3
										{
											OFFSET 6.774902 0.000000 0.000000
											CHANNELS 3 Xrotation Yrotation Zrotation
											JOINT LeftHandMiddle4
											{
												OFFSET 5.403328 0.000000 0.000000
												CHANNELS 3 Xrotation Yrotation Zrotation
												End Site
												{
													OFFSET -0.027702 5.403244 0.017414
												}
											}
										}
									}
								}
								JOINT LeftHandRing1
								{
									OFFSET 22.908401 -0.839279 -6.020567
									CHANNELS 3 Xrotation Yrotation Zrotation
									JOINT LeftHandRing2
									{
										OFFSET 6.337502 0.000000 0.000000
										CHANNELS 3 Xrotation Yrotation Zrotation
										JOINT LeftHandRing3
										{
											OFFSET 5.779297 0.000000 0.000000
											CHANNELS 3 Xrotation Yrotation Zrotation
											JOINT LeftHandRing4
											{
												OFFSET 4.965698 0.000000 0.000000
												CHANNELS 3 Xrotation Yrotation Zrotation
												End Site
												{
													OFFSET 0.000000 4.965668 0.016186
												}
											}
										}
									}
								}
								JOINT LeftHandPinky1
								{
									OFFSET 20.037003 -1.530319 -10.950146
									CHANNELS 3 Xrotation Yrotation Zrotation
									JOINT LeftHandPinky2
									{
										OFFSET 5.254700 0.000000 0.000000
										CHANNELS 3 Xrotation Yrotation Zrotation
										JOINT LeftHandPinky3
										{
											OFFSET 4.810204 0.000000 0.000000
											CHANNELS 3 Xrotation Yrotation Zrotation
											JOINT LeftHandPinky4
											{
												OFFSET 3.647202 0.000000 0.000000
												CHANNELS 3 Xrotation Yrotation Zrotation
												End Site
												{
													OFFSET 0.000000 3.647186 0.011889
												}
											}
										}
									}
								}
							}
						}
					}
				}
				JOINT RightShoulder
				{
					OFFSET -15.141001 14.495407 -7.737500
					CHANNELS 3 Xrotation Yrotation Zrotation
					JOINT RightArm
					{
						OFFSET -9.308998 -2.777710 0.208500
						CHANNELS 3 Xrotation Yrotation Zrotation
						JOINT RightForeArm
						{
							OFFSET -29.972300 0.000000 0.000000
							CHANNELS 3 Xrotation Yrotation Zrotation
							JOINT RightHand
							{
								OFFSET -26.026505 0.000000 0.000000
								CHANNELS 3 Xrotation Yrotation Zrotation
								JOINT RightHandThumb1
								{
									OFFSET -12.240601 -7.148026 9.207092
									CHANNELS 3 Xrotation Yrotation Zrotation
									JOINT RightHandThumb2
									{
										OFFSET -4.138618 -2.389435 2.389433
										CHANNELS 3 Xrotation Yrotation Zrotation
										JOINT RightHandThumb3
										{
											OFFSET -2.726974 -1.574417 1.574421
											CHANNELS 3 Xrotation Yrotation Zrotation
											JOINT RightHandThumb4
											{
												OFFSET -3.941010 -2.275345 2.275343
												CHANNELS 3 Xrotation Yrotation Zrotation
												End Site
												{
													OFFSET 0.005814 5.087799 0.009927
												}
											}
										}
									}
								}
								JOINT RightHandIndex1
								{
									OFFSET -24.424698 -1.985657 5.953444
									CHANNELS 3 Xrotation Yrotation Zrotation
									JOINT RightHandIndex2
									{
										OFFSET -6.426697 0.000000 0.000000
										CHANNELS 3 Xrotation Yrotation Zrotation
										JOINT RightHandIndex3
										{
											OFFSET -5.337898 0.000000 0.000000
											CHANNELS 3 Xrotation Yrotation Zrotation
											JOINT RightHandIndex4
											{
												OFFSET -4.409401 0.000000 0.000000
												CHANNELS 3 Xrotation Yrotation Zrotation
												End Site
												{
													OFFSET 0.000000 4.409363 0.014408
												}
											}
										}
									}
								}
								JOINT RightHandMiddle1
								{
									OFFSET -23.810097 0.000000 0.000000
									CHANNELS 3 Xrotation Yrotation Zrotation
									JOINT RightHandMiddle2
									{
										OFFSET -7.176498 0.000000 0.000000
										CHANNELS 3 Xrotation Yrotation Zrotation
										JOINT RightHandMiddle3
										{
											OFFSET -6.774902 0.000000 0.000000
											CHANNELS 3 Xrotation Yrotation Zrotation
											JOINT RightHandMiddle4
											{
												OFFSET -5.403328 0.000000 0.000000
												CHANNELS 3 Xrotation Yrotation Zrotation
												End Site
												{
													OFFSET 0.027702 5.403244 0.017457
												}
											}
										}
									}
								}
								JOINT RightHandRing1
								{
									OFFSET -22.908302 -0.839325 -6.020576
									CHANNELS 3 Xrotation Yrotation Zrotation
									JOINT RightHandRing2
									{
										OFFSET -6.337502 0.000000 0.000000
										CHANNELS 3 Xrotation Yrotation Zrotation
										JOINT RightHandRing3
										{
											OFFSET -5.779297 0.000000 0.000000
											CHANNELS 3 Xrotation Yrotation Zrotation
											JOINT RightHandRing4
											{
												OFFSET -4.965698 0.000000 0.000000
												CHANNELS 3 Xrotation Yrotation Zrotation
												End Site
												{
													OFFSET 0.000000 4.965668 0.016226
												}
											}
										}
									}
								}
								JOINT RightHandPinky1
								{
									OFFSET -20.037003 -1.530334 -10.950259
									CHANNELS 3 Xrotation Yrotation Zrotation
									JOINT RightHandPinky2
									{
										OFFSET -5.254700 0.000000 0.000000
										CHANNELS 3 Xrotation Yrotation Zrotation
										JOINT RightHandPinky3
										{
											OFFSET -4.810204 0.000000 0.000000
											CHANNELS 3 Xrotation Yrotation Zrotation
											JOINT RightHandPinky4
											{
												OFFSET -3.647202 0.000000 0.000000
												CHANNELS 3 Xrotation Yrotation Zrotation
												End Site
												{
													OFFSET 0.000000 3.647186 0.011917
												}
											}
										}
									}
								}
							}
						}
					}
				}
			}
		}
	}
	JOINT LeftUpLeg
	{
		OFFSET 15.427100 -6.655098 0.678600
		CHANNELS 3 Xrotation Yrotation Zrotation
		JOINT LeftLeg
		{
			OFFSET 4.081073 -39.591068 13.024000
			CHANNELS 3 Xrotation Yrotation Zrotation
			JOINT LeftFoot
			{
				OFFSET -4.081074 -37.707932 -15.979700
				CHANNELS 3 Xrotation Yrotation Zrotation
				JOINT LeftToeBase
				{
					OFFSET 5.346399 -15.068900 20.645000
					CHANNELS 3 Xrotation Yrotation Zrotation
					JOINT LeftToe_End
					{
						OFFSET 2.754700 0.931300 11.300900
						CHANNELS 3 Xrotation Yrotation Zrotation
						End Site
						{
							OFFSET 0.000000 11.669021 0.000000
						}
					}
				}
			}
		}
	}
	JOINT RightUpLeg
	{
		OFFSET -15.569500 -6.655098 0.678600
		CHANNELS 3 Xrotation Yrotation Zrotation
		JOINT RightLeg
		{
			OFFSET -4.081825 -39.591045 13.023800
			CHANNELS 3 Xrotation Yrotation Zrotation
			JOINT RightFoot
			{
				OFFSET 4.081824 -37.707954 -15.979600
				CHANNELS 3 Xrotation Yrotation Zrotation
				JOINT RightToeBase
				{
					OFFSET -5.346400 -15.068900 20.645000
					CHANNELS 3 Xrotation Yrotation Zrotation
					JOINT RightToe_End
					{
						OFFSET -2.754700 0.931300 11.300900
						CHANNELS 3 Xrotation Yrotation Zrotation
						End Site
						{
							OFFSET 0.000000 11.669021 0.000000
						}
					}
				}
			}
		}
	}
}
MOTION
Frames: 4
Frame Time: 0.033333
1.071879 97.620399 -0.670935 -3.744044 -5.201630 -3.902409 3.292387 1.526482 2.880662 1.155680 0.337004 1.565521 1.126250 0.358053 1.563177 5.626587 -0.091246 0.452320 -7.563306 1.368803 -0.082188 0.000000 0.000000 0.000000 1.045139 -17.452271 -12.322866 3.914774 -19.989541 -69.769611 0.000010 -1.459358 0.000006 -33.230407 -1.364822 -6.186655 -0.668505 2.159373 4.844614 11.851424 25.416450 17.057146 -13.813198 3.538591 9.032353 0.000001 -0.000002 -0.000002 0.019861 -0.969577 -7.593516 0.267871 1.752894 -17.375716 0.057681 0.820954 -8.037995 0.000001 -0.000000 -0.000003 -0.078236 2.658941 -15.697481 0.268785 1.755809 -17.405494 0.300525 1.853978 -18.413355 0.000001 -0.000000 -0.000003 0.136902 3.641775 -21.133515 0.386623 2.094787 -20.911891 0.283166 1.801020 -17.869015 0.000000 -0.000000 -0.000002 0.923200 5.558215 -27.127636 0.268795 1.755842 -17.405882 0.241909 1.667700 -16.505876 0.000000 -0.000000 0.000001 1.195054 15.341546 14.705361 13.158862 27.555119 58.785150 -0.000004 6.693737 0.000003 -20.189781 -0.512208 6.772432 -1.661719 -0.174253 -4.218883 12.722955 -29.825992 -16.122293 -15.548427 -3.563943 -12.705345 0.000001 -0.000000 -0.000002 0.038223 1.262255 6.823709 0.213729 -1.396028 17.407031 0.046029 -0.653842 8.053235 -0.000001 -0.000001 -0.000003 -0.136225 -2.205108 14.998872 0.214449 -1.398347 17.436882 0.239769 -1.476532 18.446263 0.000002 0.000001 -0.000003 0.030606 -3.075764 20.451014 0.308444 -1.668283 20.948540 0.225828 -1.434042 17.897097 -0.000000 0.000002 0.000001 0.748982 -4.885195 26.473774 0.214459 -1.398376 17.437260 0.193005 -1.328196 16.535816 -0.000000 -0.000002 -0.000000 -10.209418 14.651724 11.521358 12.134845 1.658875 4.074148 0.794840 0.807981 -8.246908 -4.928525 0.000000 -0.000000 0.000000 0.000000 0.000000 3.687451 -10.069108 1.720108 6.590432 -8.481782 -2.382739 -5.345217 -3.054278 5.002825 -7.277013 -0.000002 0.000003 0.000001 0.000001 0.000000 
1.073718 97.606483 -0.655406 -3.744086 -5.202135 -3.883310 3.292556 1.526631 2.874240 1.155680 0.337003 1.565521 1.126250 0.358054 1.563175 5.621471 -0.091245 0.452320 -7.519140 1.342556 -0.107612 -0.000000 -0.000000 -0.000000 1.045137 -17.452271 -12.322867 3.893401 -20.016380 -69.777937 0.000005 -1.475762 -0.000001 -33.256126 -1.417064 -6.180038 -0.670160 2.138139 4.840410 11.851430 25.416449 17.057122 -13.813206 3.538591 9.032378 -0.000002 -0.000001 -0.000001 0.021083 -0.971747 -7.572517 0.267869 1.752894 -17.375723 0.057683 0.820954 -8.037996 -0.000000 0.000000 0.000003 -0.078368 2.656217 -15.671497 0.268783 1.755804 -17.405509 0.300525 1.853980 -18.413352 -0.000001 -0.000001 -0.000001 0.136372 3.639366 -21.109678 0.386624 2.094787 -20.911910 0.283167 1.801024 -17.869015 0.000000 -0.000000 -0.000003 0.922875 5.557701 -27.121740 0.268794 1.755845 -17.405873 0.241909 1.667694 -16.505898 0.000000 0.000000 0.000002 1.199861 15.323874 14.704089 13.148982 27.586340 58.775622 0.000004 6.698209 0.000005 -20.193546 -0.491055 6.780228 -1.661836 -0.155033 -4.243567 12.720327 -29.843917 -16.125699 -15.548415 -3.563930 -12.705332 -0.000000 -0.000001 -0.000002 0.031620 1.276276 6.893973 0.216533 -1.404968 17.522183 0.047358 -0.663200 8.169178 -0.000002 0.000000 -0.000003 -0.136311 -2.211037 15.068989 0.214450 -1.398353 17.436887 0.239762 -1.476516 18.446287 0.000000 -0.000000 0.000000 0.030613 -3.075758 20.451026 0.308439 -1.668277 20.948528 0.225827 -1.434055 17.897090 0.000002 -0.000001 -0.000001 0.752243 -4.891259 26.493264 0.215677 -1.402239 17.486949 0.194161 -1.332055 16.585506 -0.000000 -0.000002 0.000004 -10.218780 14.649887 11.504754 12.170889 1.658327 4.073532 0.775787 0.809703 -8.247605 -4.928527 -0.000004 0.000000 0.000000 -0.000001 -0.000000 3.652229 -10.066182 1.693011 6.657682 -8.495126 -2.390834 -5.379373 -3.054419 5.019546 -7.277011 0.000000 -0.000002 0.000000 -0.000000 -0.000000 
1.076583 97.590485 -0.640344 -3.734991 -5.206230 -3.858300 3.292779 1.526836 2.865949 1.155680 0.337004 1.565521 1.126249 0.358054 1.563176 5.601187 -0.091863 0.440692 -7.513705 1.324126 -0.154460 0.000000 -0.000000 0.000000 1.045140 -17.452274 -12.322869 3.877241 -20.040885 -69.788749 -0.000001 -1.495181 -0.000008 -33.272225 -1.447408 -6.182350 -0.670815 2.130175 4.836181 11.851560 25.415585 17.056973 -13.813190 3.538596 9.032346 -0.000001 -0.000003 -0.000001 0.022771 -0.974741 -7.543574 0.267871 1.752898 -17.375711 0.057683 0.820949 -8.038012 0.000001 0.000000 0.000002 -0.078515 2.653200 -15.642798 0.268782 1.755806 -17.405489 0.300528 1.853982 -18.413335 -0.000001 -0.000002 0.000002 0.135729 3.636439 -21.080788 0.386622 2.094790 -20.911891 0.283167 1.801024 -17.869008 -0.000000 -0.000000 -0.000001 0.922042 5.556402 -27.106818 0.268797 1.755842 -17.405887 0.241909 1.667699 -16.505876 0.000001 -0.000000 0.000000 1.203724 15.309671 14.703073 13.141086 27.612281 58.767767 -0.000002 6.710044 0.000003 -20.198218 -0.464833 6.789839 -1.660609 -0.151814 -4.276020 12.717287 -29.864596 -16.129632 -15.548434 -3.563938 -12.705341 -0.000000 0.000001 0.000000 0.035777 1.261981 6.858605 0.216763 -1.405671 17.531311 0.047473 -0.663968 8.178612 -0.000004 -0.000001 -0.000001 -0.135261 -2.213285 15.049685 0.214391 -1.398146 17.434234 0.239710 -1.476331 18.443608 0.000000 -0.000000 -0.000001 0.031891 -3.078461 20.433807 0.308930 -1.669561 20.965373 0.226245 -1.435356 17.914068 -0.000001 0.000000 0.000000 0.757415 -4.902606 26.449709 0.215381 -1.401312 17.475010 0.193928 -1.331272 16.575349 0.000000 -0.000002 -0.000001 -10.230971 14.647506 11.482820 12.211559 1.657579 4.072763 0.759831 0.811904 -8.251894 -4.928531 0.000004 0.000003 0.000001 0.000001 -0.000000 3.609405 -10.062640 1.660257 6.734936 -8.500907 -2.401400 -5.425876 -3.055386 5.040532 -7.277014 -0.000008 -0.000000 0.000000 -0.000001 0.000000 
1.079974 97.577362 -0.625337 -3.721643 -5.214564 -3.831108 3.292994 1.527077 2.857853 1.155680 0.337004 1.565521 1.126249 0.358053 1.567131 5.565636 -0.092709 0.429317 -7.570883 1.327604 -0.214814 -0.000000 0.000000 -0.000000 1.045140 -17.452279 -12.322869 3.865025 -20.083343 -69.808911 -0.000000 -1.516616 0.000001 -33.281442 -1.442544 -6.200196 -0.671121 2.126648 4.832982 11.851855 25.413717 17.056587 -13.813208 3.538589 9.032382 -0.000002 0.000001 0.000000 0.023377 -0.975817 -7.533179 0.267870 1.752892 -17.375711 0.057683 0.820957 -8.037996 0.000000 -0.000000 0.000000 -0.078522 2.653114 -15.641973 0.268782 1.755805 -17.405506 0.300528 1.853981 -18.413343 0.000000 -0.000000 0.000001 0.135489 3.635361 -21.070106 0.386623 2.094788 -20.911889 0.283168 1.801021 -17.869028 -0.000000 -0.000001 -0.000003 0.921301 5.555243 -27.093574 0.268794 1.755842 -17.405868 0.241907 1.667698 -16.505886 0.000000 0.000000 0.000002 1.208926 15.299658 14.692779 13.128067 27.625313 58.762972 -0.000000 6.721368 0.000017 -20.203457 -0.443003 6.797854 -1.660571 -0.198653 -4.210205 12.687728 -29.805501 -16.139903 -15.548714 -3.562282 -12.704993 0.000002 0.000000 -0.000002 0.064121 1.207016 6.706127 0.215550 -1.401834 17.481919 0.046869 -0.659751 8.126304 -0.000001 -0.000001 -0.000004 -0.132682 -2.214455 14.954448 0.213586 -1.395575 17.401169 0.238842 -1.473744 18.410194 0.000002 -0.000004 -0.000001 0.034509 -3.082985 20.376585 0.309647 -1.671399 20.989605 0.226821 -1.437121 17.936867 -0.000001 -0.000000 0.000001 0.755807 -4.900448 26.402636 0.214339 -1.397993 17.432268 0.192906 -1.327854 16.531617 -0.000000 -0.000000 0.000001 -10.241735 14.645261 11.457346 12.245838 1.665314 4.071886 0.748770 0.814635 -8.240184 -4.937503 0.000008 0.000002 0.000000 0.000000 -0.000000 3.564502 -10.059408 1.625884 6.804473 -8.503353 -2.412084 -5.467498 -3.055243 5.060544 -7.277012 -0.000004 0.000000 -0.000000 -0.000001 -0.000000 
